# xmcd
#
# Track frame offsets:
#	150
#	9472
#	22464
#	33133
#	44255
#	58860
#	77465
#	92484
#	102790
#	115428
#	125736
#	135156
#	151484
#	171334
#	181520
#	192319
#	211975
#
# Disc length: 3023 seconds
#
# Revision: 1
# Processed by: cddbd v1.5.2PL0 Copyright (c) Steve Scherf et al.
# Submitted via: EasyCDDAExtractor 11.5.3.1
#
DISCID=db0bcd11
DTITLE=Kraja - Under himmelens fäste
DYEAR=2008
DGENRE=Folklore
TTITLE0=Si god afton och god kväll
TTITLE1=Allt under himmelens fäste
TTITLE2=Kom lilla flicka/Idas vals
TTITLE3=Den signade dag
TTITLE4=Limu limu lima/Lille Lasse
TTITLE5=En gång i min ungdom/Schottis efter Knaft Jonke
TTITLE6=En sjöman älskar havets våg
TTITLE7=Uti vår hage
TTITLE8=Lars Persson
TTITLE9=Fyllevisor
TTITLE10=Låt oss lustiga vara
TTITLE11=Min vän
TTITLE12=Du som fromma hjärtan vårdar
TTITLE13=Bonden och kråkan
TTITLE14=Öland
TTITLE15=Jag vet en dejlig rosa
TTITLE16=Gud som haver
EXTD=
EXTT0=
EXTT1=
EXTT2=
EXTT3=
EXTT4=
EXTT5=
EXTT6=
EXTT7=
EXTT8=
EXTT9=
EXTT10=
EXTT11=
EXTT12=
EXTT13=
EXTT14=
EXTT15=
EXTT16=
PLAYORDER=
